<mxfile host="app.diagrams.net" modified="2023-06-07T09:10:24.321Z" agent="Mozilla/5.0 (Macintosh; Intel Mac OS X 10_15_7) AppleWebKit/605.1.15 (KHTML, like Gecko) Version/16.3 Safari/605.1.15" etag="pQxkfPuwYe2qXwnhBASk" version="21.3.7" type="device">
  <diagram id="kyjlC0zcCL2eflj4ScPv" name="TestWork001">
    <mxGraphModel dx="783" dy="622" grid="1" gridSize="10" guides="1" tooltips="1" connect="1" arrows="1" fold="1" page="1" pageScale="1" pageWidth="827" pageHeight="1169" math="0" shadow="0">
      <root>
        <mxCell id="0" />
        <mxCell id="1" parent="0" />
        <mxCell id="5VOONZNe6KkLIQ0nJtQf-3" value="" style="edgeStyle=orthogonalEdgeStyle;rounded=0;orthogonalLoop=1;jettySize=auto;html=1;" parent="1" source="5VOONZNe6KkLIQ0nJtQf-1" target="5VOONZNe6KkLIQ0nJtQf-2" edge="1">
          <mxGeometry relative="1" as="geometry" />
        </mxCell>
        <mxCell id="5VOONZNe6KkLIQ0nJtQf-1" value="Start" style="rounded=1;whiteSpace=wrap;html=1;" parent="1" vertex="1">
          <mxGeometry x="354" y="20" width="120" height="30" as="geometry" />
        </mxCell>
        <mxCell id="5VOONZNe6KkLIQ0nJtQf-8" style="edgeStyle=orthogonalEdgeStyle;rounded=0;orthogonalLoop=1;jettySize=auto;html=1;exitX=0.5;exitY=1;exitDx=0;exitDy=0;entryX=0.5;entryY=0;entryDx=0;entryDy=0;" parent="1" source="5VOONZNe6KkLIQ0nJtQf-2" target="5VOONZNe6KkLIQ0nJtQf-7" edge="1">
          <mxGeometry relative="1" as="geometry" />
        </mxCell>
        <mxCell id="5VOONZNe6KkLIQ0nJtQf-2" value="userArray = [&quot;randStr&quot;, &quot;randStr&quot;, &quot;randStr&quot;]" style="shape=parallelogram;perimeter=parallelogramPerimeter;whiteSpace=wrap;html=1;fixedSize=1;rounded=1;" parent="1" vertex="1">
          <mxGeometry x="238" y="70" width="352" height="30" as="geometry" />
        </mxCell>
        <mxCell id="5VOONZNe6KkLIQ0nJtQf-10" value="" style="edgeStyle=orthogonalEdgeStyle;rounded=0;orthogonalLoop=1;jettySize=auto;html=1;exitX=0.5;exitY=1;exitDx=0;exitDy=0;" parent="1" source="5VOONZNe6KkLIQ0nJtQf-7" target="5VOONZNe6KkLIQ0nJtQf-9" edge="1">
          <mxGeometry relative="1" as="geometry">
            <mxPoint x="354" y="150" as="sourcePoint" />
          </mxGeometry>
        </mxCell>
        <mxCell id="5VOONZNe6KkLIQ0nJtQf-7" value="index = 0&lt;br&gt;string separator = &quot;separator&quot;&lt;br&gt;string result = String.Emty&lt;br&gt;int maxLength = 3" style="rounded=0;whiteSpace=wrap;html=1;" parent="1" vertex="1">
          <mxGeometry x="328" y="120" width="172" height="60" as="geometry" />
        </mxCell>
        <mxCell id="5VOONZNe6KkLIQ0nJtQf-14" value="YES" style="edgeStyle=orthogonalEdgeStyle;rounded=0;orthogonalLoop=1;jettySize=auto;html=1;" parent="1" source="5VOONZNe6KkLIQ0nJtQf-9" target="5VOONZNe6KkLIQ0nJtQf-13" edge="1">
          <mxGeometry y="16" relative="1" as="geometry">
            <mxPoint as="offset" />
          </mxGeometry>
        </mxCell>
        <mxCell id="5VOONZNe6KkLIQ0nJtQf-20" value="NO" style="edgeStyle=orthogonalEdgeStyle;rounded=0;orthogonalLoop=1;jettySize=auto;html=1;entryX=0;entryY=0.5;entryDx=0;entryDy=0;" parent="1" source="5VOONZNe6KkLIQ0nJtQf-9" target="iqLxkOUo-eWAP6gdlgqT-3" edge="1">
          <mxGeometry x="0.4286" y="10" relative="1" as="geometry">
            <mxPoint as="offset" />
            <mxPoint x="530" y="240" as="targetPoint" />
          </mxGeometry>
        </mxCell>
        <mxCell id="5VOONZNe6KkLIQ0nJtQf-9" value="index &amp;lt; userArray.length" style="rhombus;whiteSpace=wrap;html=1;rounded=0;" parent="1" vertex="1">
          <mxGeometry x="328" y="200" width="172" height="80" as="geometry" />
        </mxCell>
        <mxCell id="5VOONZNe6KkLIQ0nJtQf-16" value="YES" style="edgeStyle=orthogonalEdgeStyle;rounded=0;orthogonalLoop=1;jettySize=auto;html=1;" parent="1" source="5VOONZNe6KkLIQ0nJtQf-13" target="5VOONZNe6KkLIQ0nJtQf-15" edge="1">
          <mxGeometry y="16" relative="1" as="geometry">
            <mxPoint as="offset" />
          </mxGeometry>
        </mxCell>
        <mxCell id="iqLxkOUo-eWAP6gdlgqT-2" value="NO" style="edgeStyle=orthogonalEdgeStyle;rounded=0;orthogonalLoop=1;jettySize=auto;html=1;exitX=1;exitY=0.5;exitDx=0;exitDy=0;entryX=1;entryY=0.5;entryDx=0;entryDy=0;" edge="1" parent="1" source="5VOONZNe6KkLIQ0nJtQf-13" target="5VOONZNe6KkLIQ0nJtQf-29">
          <mxGeometry x="-0.1875" y="10" relative="1" as="geometry">
            <mxPoint as="offset" />
          </mxGeometry>
        </mxCell>
        <mxCell id="5VOONZNe6KkLIQ0nJtQf-13" value="userArray[index].Length &amp;lt; maxLength" style="rhombus;whiteSpace=wrap;html=1;rounded=0;" parent="1" vertex="1">
          <mxGeometry x="290" y="320" width="250" height="80" as="geometry" />
        </mxCell>
        <mxCell id="iqLxkOUo-eWAP6gdlgqT-1" style="edgeStyle=orthogonalEdgeStyle;rounded=0;orthogonalLoop=1;jettySize=auto;html=1;exitX=0.5;exitY=1;exitDx=0;exitDy=0;entryX=0.5;entryY=0;entryDx=0;entryDy=0;" edge="1" parent="1" source="5VOONZNe6KkLIQ0nJtQf-15" target="5VOONZNe6KkLIQ0nJtQf-29">
          <mxGeometry relative="1" as="geometry" />
        </mxCell>
        <mxCell id="5VOONZNe6KkLIQ0nJtQf-15" value="result = userArray[index] + separator" style="whiteSpace=wrap;html=1;rounded=0;" parent="1" vertex="1">
          <mxGeometry x="329" y="435" width="172" height="30" as="geometry" />
        </mxCell>
        <mxCell id="5VOONZNe6KkLIQ0nJtQf-21" value="End" style="rounded=1;whiteSpace=wrap;html=1;" parent="1" vertex="1">
          <mxGeometry x="660" y="465" width="120" height="30" as="geometry" />
        </mxCell>
        <mxCell id="5VOONZNe6KkLIQ0nJtQf-31" style="edgeStyle=orthogonalEdgeStyle;rounded=0;orthogonalLoop=1;jettySize=auto;html=1;exitX=0;exitY=0.5;exitDx=0;exitDy=0;entryX=0;entryY=0.5;entryDx=0;entryDy=0;" parent="1" source="5VOONZNe6KkLIQ0nJtQf-29" target="5VOONZNe6KkLIQ0nJtQf-9" edge="1">
          <mxGeometry relative="1" as="geometry">
            <Array as="points">
              <mxPoint x="240" y="575" />
              <mxPoint x="240" y="240" />
            </Array>
          </mxGeometry>
        </mxCell>
        <mxCell id="5VOONZNe6KkLIQ0nJtQf-29" value="index = index + 1" style="whiteSpace=wrap;html=1;rounded=0;" parent="1" vertex="1">
          <mxGeometry x="355" y="560" width="120" height="30" as="geometry" />
        </mxCell>
        <mxCell id="iqLxkOUo-eWAP6gdlgqT-5" style="edgeStyle=orthogonalEdgeStyle;rounded=0;orthogonalLoop=1;jettySize=auto;html=1;exitX=0.5;exitY=1;exitDx=0;exitDy=0;entryX=0.5;entryY=0;entryDx=0;entryDy=0;" edge="1" parent="1" source="iqLxkOUo-eWAP6gdlgqT-3" target="iqLxkOUo-eWAP6gdlgqT-4">
          <mxGeometry relative="1" as="geometry" />
        </mxCell>
        <mxCell id="iqLxkOUo-eWAP6gdlgqT-3" value="resultArray = result.Split(separator)" style="rounded=0;whiteSpace=wrap;html=1;" vertex="1" parent="1">
          <mxGeometry x="630" y="210" width="180" height="60" as="geometry" />
        </mxCell>
        <mxCell id="iqLxkOUo-eWAP6gdlgqT-6" style="edgeStyle=orthogonalEdgeStyle;rounded=0;orthogonalLoop=1;jettySize=auto;html=1;exitX=0.5;exitY=1;exitDx=0;exitDy=0;entryX=0.5;entryY=0;entryDx=0;entryDy=0;" edge="1" parent="1" source="iqLxkOUo-eWAP6gdlgqT-4" target="5VOONZNe6KkLIQ0nJtQf-21">
          <mxGeometry relative="1" as="geometry" />
        </mxCell>
        <mxCell id="iqLxkOUo-eWAP6gdlgqT-4" value="print ResultArray" style="shape=parallelogram;perimeter=parallelogramPerimeter;whiteSpace=wrap;html=1;fixedSize=1;" vertex="1" parent="1">
          <mxGeometry x="660" y="330" width="120" height="60" as="geometry" />
        </mxCell>
      </root>
    </mxGraphModel>
  </diagram>
</mxfile>
